<!DOCTYPE svg PUBLIC "-//W3C//DTD SVG 20010904//EN" "http://www.w3.org/TR/2001/REC-SVG-20010904/DTD/svg10.dtd">
<svg version="1.0" xmlns="http://www.w3.org/2000/svg" width="133px" height="77px" viewBox="0 0 1330 770" preserveAspectRatio="xMidYMid meet">
<g id="layer101" fill="#626262" stroke="none">
 <path d="M575 660 l-59 -60 -56 55 c-31 30 -60 55 -65 55 -6 0 -84 -74 -175 -165 l-165 -165 168 -167 167 -168 62 62 63 63 62 -62 63 -62 60 59 60 59 60 -59 60 -60 165 165 c91 91 165 169 165 175 0 13 -312 325 -325 325 -5 0 -35 -26 -67 -57 l-58 -57 -63 62 -63 62 -59 -60z m-127 -23 l52 -53 -100 -99 -100 -100 102 -102 102 -103 -54 -55 -55 -55 -157 157 -158 158 152 152 c84 84 155 153 158 153 3 0 29 -24 58 -53z m250 0 l52 -53 -55 -54 -55 -54 -55 54 -55 54 52 53 c29 29 55 53 58 53 3 0 29 -24 58 -53z m342 -102 l155 -155 -155 -155 -155 -155 -55 55 -55 55 100 100 100 100 -103 103 -102 102 52 53 c29 28 55 52 58 52 3 0 75 -70 160 -155z m-455 -115 l-39 -40 39 -40 39 -40 -54 -55 -55 -55 -95 95 -95 95 95 95 95 95 55 -55 54 -55 -39 -40z m273 57 l92 -92 -95 -95 -95 -94 -55 54 -55 54 35 36 c19 20 35 40 35 46 0 6 -16 25 -35 44 l-35 34 52 53 c29 29 55 53 58 53 3 0 47 -42 98 -93z m-186 -129 l-32 -32 -35 34 -35 34 32 33 32 33 35 -35 36 -35 -33 -32z m18 -223 l-55 -55 -55 55 -55 55 55 55 55 55 55 -55 55 -55 -55 -55z"/>
 </g>
<g id="layer102" fill="#9f9f9f" stroke="none">
 <path d="M575 660 l-59 -60 -53 52 c-29 28 -59 53 -66 54 -8 1 -88 -72 -178 -162 l-164 -164 167 -167 168 -168 60 60 c33 33 60 64 60 70 0 5 -28 -18 -61 -52 -55 -57 -79 -77 -65 -55 7 11 -298 315 -307 306 -4 -4 -7 -3 -7 2 0 5 71 80 157 166 l158 158 57 -57 58 -58 -102 -102 c-56 -56 -94 -101 -84 -99 9 1 58 44 109 94 l93 92 54 -55 54 -55 -39 -40 -39 -40 39 -40 39 -40 -52 -53 c-29 -29 -52 -57 -52 -62 0 -5 26 16 58 48 l58 57 54 -55 54 -55 -49 -50 c-27 -27 -50 -57 -51 -66 -2 -10 23 9 57 42 l59 58 60 -59 60 -60 165 165 c91 91 165 169 165 175 0 13 -312 325 -325 325 -6 0 -37 -27 -70 -60 -33 -33 -55 -60 -50 -60 5 0 33 24 62 52 l53 53 158 -158 157 -157 -155 -155 -155 -155 -55 55 -55 55 99 99 c55 55 92 99 82 97 -9 -1 -57 -42 -106 -91 l-90 -89 -55 54 -55 54 32 33 c17 18 33 39 34 47 1 8 -13 29 -32 47 l-34 33 57 58 c32 32 53 58 48 58 -5 0 -33 -23 -62 -52 l-53 -52 -55 54 -55 54 52 53 c28 29 53 59 54 68 1 8 1 15 0 15 -1 0 -28 -27 -61 -60z m-2 -15 l57 55 -55 -57 -55 -58 97 -97 96 -97 -40 -40 -40 -40 64 -63 63 -63 98 95 97 95 -95 -97 -94 -98 59 -62 60 -63 -62 60 -63 59 -57 -54 -58 -55 55 58 54 57 -97 98 -97 98 40 39 40 39 -62 63 -63 63 -100 -97 -100 -98 97 100 98 100 -58 60 -57 60 60 -58 60 -57 58 55z m-338 -425 c82 -82 147 -150 145 -150 -3 0 -73 68 -155 150 -82 83 -147 150 -145 150 3 0 73 -67 155 -150z"/>
 <path d="M640 447 c0 -2 15 -16 33 -33 l32 -29 -29 33 c-28 30 -36 37 -36 29z"/>
 <path d="M570 377 c0 -2 15 -16 33 -33 l32 -29 -29 33 c-28 30 -36 37 -36 29z"/>
 </g>
<g id="layer103" fill="#e0e0e0" stroke="none">
 <path d="M575 660 l-59 -60 -53 52 c-29 28 -59 53 -66 54 -8 1 -88 -72 -178 -162 l-164 -164 167 -167 c92 -92 166 -159 164 -149 -3 21 -297 317 -308 310 -4 -3 -8 -2 -8 3 0 4 71 79 157 165 l158 158 57 -57 58 -58 -102 -102 c-56 -56 -94 -101 -84 -99 18 2 198 177 191 185 -7 6 16 32 24 26 10 -6 104 91 107 110 1 8 1 15 0 15 -1 0 -28 -27 -61 -60z m-115 -15 c30 -30 52 -55 49 -55 -2 0 -29 25 -59 55 -30 30 -52 55 -49 55 2 0 29 -25 59 -55z m170 52 c0 -1 -24 -25 -52 -52 l-53 -50 50 53 c46 48 55 57 55 49z m-130 -130 c0 -1 -42 -43 -92 -92 l-93 -90 90 93 c83 85 95 97 95 89z m-265 -347 c82 -82 147 -150 145 -150 -3 0 -73 68 -155 150 -82 83 -147 150 -145 150 3 0 73 -67 155 -150z"/>
 <path d="M887 703 c-3 -5 65 -80 152 -167 87 -87 161 -154 164 -149 3 5 -65 80 -152 167 -87 87 -161 154 -164 149z"/>
 <path d="M527 573 c-3 -5 18 -33 47 -62 30 -29 56 -49 59 -44 3 5 -18 33 -47 62 -30 29 -56 49 -59 44z m58 -53 c27 -27 47 -50 44 -50 -3 0 -27 23 -54 50 -27 28 -47 50 -44 50 3 0 27 -22 54 -50z"/>
 <path d="M647 452 c-4 -5 9 -23 27 -41 19 -18 36 -29 39 -23 4 5 -9 23 -27 41 -19 18 -36 29 -39 23z m39 -34 l29 -33 -32 29 c-31 28 -38 36 -30 36 2 0 16 -15 33 -32z"/>
 <path d="M586 339 c21 -21 41 -36 46 -32 13 7 -48 70 -68 70 -9 0 -1 -14 22 -38z m20 -1 l29 -33 -32 29 c-31 28 -38 36 -30 36 2 0 16 -15 33 -32z"/>
 <path d="M851 286 l-91 -91 -53 53 c-29 29 -56 49 -60 45 -4 -4 16 -31 45 -60 l52 -53 -49 -50 c-27 -27 -50 -57 -51 -66 -2 -10 23 9 57 42 l59 58 59 -58 c34 -33 59 -52 57 -42 -1 9 -24 39 -51 66 l-49 50 97 98 c54 54 92 99 83 99 -8 0 -55 -41 -105 -91z m9 -11 l-94 -95 54 -57 55 -58 -57 55 -58 54 -57 -54 -58 -55 55 57 54 58 -54 58 -55 57 58 -55 57 -55 93 93 c50 50 94 92 97 92 2 0 -38 -43 -90 -95z"/>
 </g>

</svg>