<svg xmlns="http://www.w3.org/2000/svg" width="1440" height="900"><path d="M743,370L832,369L836,277Z" fill="#fe913e" stroke="#fe913e" stroke-width="1.51"/><path d="M836,277L701,279L743,370Z" fill="#fe9941" stroke="#fe9941" stroke-width="1.51"/><path d="M832,369L961,272L836,277Z" fill="#ff8c3d" stroke="#ff8c3d" stroke-width="1.51"/><path d="M836,277L733,141L701,279Z" fill="#ffa34a" stroke="#ffa34a" stroke-width="1.51"/><path d="M866,117L733,141L836,277Z" fill="#ffa44f" stroke="#ffa44f" stroke-width="1.51"/><path d="M832,369L979,410L961,272Z" fill="#fe8239" stroke="#fe8239" stroke-width="1.51"/><path d="M838,540L979,410L832,369Z" fill="#fd7b36" stroke="#fd7b36" stroke-width="1.51"/><path d="M961,272L866,117L836,277Z" fill="#ff9645" stroke="#ff9645" stroke-width="1.51"/><path d="M701,279L581,404L743,370Z" fill="#fe9c42" stroke="#fe9c42" stroke-width="1.51"/><path d="M586,121L575,258L701,279Z" fill="#ffb050" stroke="#ffb050" stroke-width="1.51"/><path d="M575,258L581,404L701,279Z" fill="#fea546" stroke="#fea546" stroke-width="1.51"/><path d="M743,370L736,538L832,369Z" fill="#fd8b3b" stroke="#fd8b3b" stroke-width="1.51"/><path d="M581,404L736,538L743,370Z" fill="#fd913d" stroke="#fd913d" stroke-width="1.51"/><path d="M736,538L838,540L832,369Z" fill="#fd7e37" stroke="#fd7e37" stroke-width="1.51"/><path d="M1092,143L973,105L961,272Z" fill="#ff9147" stroke="#ff9147" stroke-width="1.51"/><path d="M838,540L1002,498L979,410Z" fill="#fd6d32" stroke="#fd6d32" stroke-width="1.51"/><path d="M733,141L586,121L701,279Z" fill="#ffb053" stroke="#ffb053" stroke-width="1.51"/><path d="M710,7L586,121L733,141Z" fill="#ffb95f" stroke="#ffb95f" stroke-width="1.51"/><path d="M866,117L855,21L733,141Z" fill="#ffab59" stroke="#ffab59" stroke-width="1.51"/><path d="M961,272L973,105L866,117Z" fill="#ff984b" stroke="#ff984b" stroke-width="1.51"/><path d="M1110,252L961,272L979,410Z" fill="#fc7f38" stroke="#fc7f38" stroke-width="1.51"/><path d="M581,404L579,516L736,538Z" fill="#fe8e3d" stroke="#fe8e3d" stroke-width="1.51"/><path d="M470,397L579,516L581,404Z" fill="#fe9c42" stroke="#fe9c42" stroke-width="1.51"/><path d="M973,105L855,21L866,117Z" fill="#ffa457" stroke="#ffa457" stroke-width="1.51"/><path d="M855,21L710,7L733,141Z" fill="#ffb460" stroke="#ffb460" stroke-width="1.51"/><path d="M575,258L470,397L581,404Z" fill="#fea646" stroke="#fea646" stroke-width="1.51"/><path d="M439,275L470,397L575,258Z" fill="#feae4a" stroke="#feae4a" stroke-width="1.51"/><path d="M1125,407L1110,252L979,410Z" fill="#f97534" stroke="#f97534" stroke-width="1.51"/><path d="M1002,498L1085,499L979,410Z" fill="#fa6930" stroke="#fa6930" stroke-width="1.51"/><path d="M1099,630L1085,499L1002,498Z" fill="#f8572a" stroke="#f8572a" stroke-width="1.51"/><path d="M1085,499L1125,407L979,410Z" fill="#f86b30" stroke="#f86b30" stroke-width="1.51"/><path d="M736,538L859,665L838,540Z" fill="#fd6b31" stroke="#fd6b31" stroke-width="1.51"/><path d="M838,540L983,638L1002,498Z" fill="#fd5d2e" stroke="#fd5d2e" stroke-width="1.51"/><path d="M579,516L697,660L736,538Z" fill="#fe7c36" stroke="#fe7c36" stroke-width="1.51"/><path d="M588,669L697,660L579,516Z" fill="#fe7835" stroke="#fe7835" stroke-width="1.51"/><path d="M438,117L439,275L575,258Z" fill="#ffba56" stroke="#ffba56" stroke-width="1.51"/><path d="M697,660L859,665L736,538Z" fill="#fc6a31" stroke="#fc6a31" stroke-width="1.51"/><path d="M1110,252L1092,143L961,272Z" fill="#fc8840" stroke="#fc8840" stroke-width="1.51"/><path d="M973,105L994,-30L855,21Z" fill="#ffa25c" stroke="#ffa25c" stroke-width="1.51"/><path d="M859,665L983,638L838,540Z" fill="#fd592c" stroke="#fd592c" stroke-width="1.51"/><path d="M470,397L456,512L579,516Z" fill="#fe9941" stroke="#fe9941" stroke-width="1.51"/><path d="M344,498L456,512L470,397Z" fill="#fea247" stroke="#fea247" stroke-width="1.51"/><path d="M710,7L598,-17L586,121Z" fill="#ffc068" stroke="#ffc068" stroke-width="1.51"/><path d="M586,121L438,117L575,258Z" fill="#ffbd5a" stroke="#ffbd5a" stroke-width="1.51"/><path d="M729,-135L598,-17L710,7Z" fill="#ffc171" stroke="#ffc171" stroke-width="1.51"/><path d="M697,660L699,760L859,665Z" fill="#f7642e" stroke="#f7642e" stroke-width="1.51"/><path d="M484,640L588,669L579,516Z" fill="#fe8038" stroke="#fe8038" stroke-width="1.51"/><path d="M461,-29L438,117L586,121Z" fill="#ffc868" stroke="#ffc868" stroke-width="1.51"/><path d="M1120,3L994,-30L973,105Z" fill="#ff9c59" stroke="#ff9c59" stroke-width="1.51"/><path d="M855,21L729,-135L710,7Z" fill="#ffb96c" stroke="#ffb96c" stroke-width="1.51"/><path d="M983,638L1099,630L1002,498Z" fill="#f94e29" stroke="#f94e29" stroke-width="1.51"/><path d="M1256,534L1240,362L1125,407Z" fill="#f1612c" stroke="#f1612c" stroke-width="1.51"/><path d="M999,752L1099,630L983,638Z" fill="#f44125" stroke="#f44125" stroke-width="1.51"/><path d="M456,512L484,640L579,516Z" fill="#ff8c3d" stroke="#ff8c3d" stroke-width="1.51"/><path d="M588,669L699,760L697,660Z" fill="#f76d31" stroke="#f76d31" stroke-width="1.51"/><path d="M859,665L999,752L983,638Z" fill="#f74727" stroke="#f74727" stroke-width="1.51"/><path d="M604,783L699,760L588,669Z" fill="#f56b30" stroke="#f56b30" stroke-width="1.51"/><path d="M439,275L330,402L470,397Z" fill="#feaf4e" stroke="#feaf4e" stroke-width="1.51"/><path d="M456,512L337,630L484,640Z" fill="#ff8c40" stroke="#ff8c40" stroke-width="1.51"/><path d="M438,117L347,237L439,275Z" fill="#ffc15c" stroke="#ffc15c" stroke-width="1.51"/><path d="M994,-30L863,-127L855,21Z" fill="#ffab67" stroke="#ffab67" stroke-width="1.51"/><path d="M1256,534L1125,407L1085,499Z" fill="#f35d2b" stroke="#f35d2b" stroke-width="1.51"/><path d="M1125,407L1240,362L1110,252Z" fill="#f57132" stroke="#f57132" stroke-width="1.51"/><path d="M1110,252L1213,105L1092,143Z" fill="#f98944" stroke="#f98944" stroke-width="1.51"/><path d="M1092,143L1120,3L973,105Z" fill="#fe9651" stroke="#fe9651" stroke-width="1.51"/><path d="M598,-17L461,-29L586,121Z" fill="#ffc66c" stroke="#ffc66c" stroke-width="1.51"/><path d="M863,-127L729,-135L855,21Z" fill="#ffb670" stroke="#ffb670" stroke-width="1.51"/><path d="M994,-30L995,-142L863,-127Z" fill="#ffa96c" stroke="#ffa96c" stroke-width="1.51"/><path d="M1213,105L1120,3L1092,143Z" fill="#fb914e" stroke="#fb914e" stroke-width="1.51"/><path d="M347,237L330,402L439,275Z" fill="#ffb954" stroke="#ffb954" stroke-width="1.51"/><path d="M330,402L344,498L470,397Z" fill="#ffa94d" stroke="#ffa94d" stroke-width="1.51"/><path d="M1264,272L1213,105L1110,252Z" fill="#f5803d" stroke="#f5803d" stroke-width="1.51"/><path d="M438,117L321,129L347,237Z" fill="#ffca66" stroke="#ffca66" stroke-width="1.51"/><path d="M576,-133L461,-29L598,-17Z" fill="#ffcc77" stroke="#ffcc77" stroke-width="1.51"/><path d="M1240,362L1264,272L1110,252Z" fill="#f37332" stroke="#f37332" stroke-width="1.51"/><path d="M871,798L999,752L859,665Z" fill="#f34726" stroke="#f34726" stroke-width="1.51"/><path d="M699,760L871,798L859,665Z" fill="#f3562a" stroke="#f3562a" stroke-width="1.51"/><path d="M699,760L840,883L871,798Z" fill="#ec522a" stroke="#ec522a" stroke-width="1.51"/><path d="M449,760L604,783L588,669Z" fill="#f57332" stroke="#f57332" stroke-width="1.51"/><path d="M449,760L588,669L484,640Z" fill="#f97b35" stroke="#f97b35" stroke-width="1.51"/><path d="M729,-135L576,-133L598,-17Z" fill="#ffc779" stroke="#ffc779" stroke-width="1.51"/><path d="M347,237L206,235L330,402Z" fill="#fec05c" stroke="#fec05c" stroke-width="1.51"/><path d="M305,17L321,129L438,117Z" fill="#ffd271" stroke="#ffd271" stroke-width="1.51"/><path d="M1111,-124L995,-142L994,-30Z" fill="#ffa369" stroke="#ffa369" stroke-width="1.51"/><path d="M863,-127L995,-142L729,-135Z" fill="#ffb475" stroke="#ffb475" stroke-width="1.51"/><path d="M729,-135L442,-148L576,-133Z" fill="#ffcd81" stroke="#ffcd81" stroke-width="1.51"/><path d="M1111,-124L994,-30L1120,3Z" fill="#ff9e61" stroke="#ff9e61" stroke-width="1.51"/><path d="M1257,638L1256,534L1099,630Z" fill="#f03c23" stroke="#f03c23" stroke-width="1.51"/><path d="M1099,630L1256,534L1085,499Z" fill="#f34d27" stroke="#f34d27" stroke-width="1.51"/><path d="M1240,362L1345,383L1264,272Z" fill="#ec6c32" stroke="#ec6c32" stroke-width="1.51"/><path d="M344,498L337,630L456,512Z" fill="#ff9846" stroke="#ff9846" stroke-width="1.51"/><path d="M207,492L337,630L344,498Z" fill="#ffa04e" stroke="#ffa04e" stroke-width="1.51"/><path d="M207,492L344,498L330,402Z" fill="#ffac53" stroke="#ffac53" stroke-width="1.51"/><path d="M1213,105L1232,1L1120,3Z" fill="#f99152" stroke="#f99152" stroke-width="1.51"/><path d="M1373,8L1232,1L1213,105Z" fill="#f28d53" stroke="#f28d53" stroke-width="1.51"/><path d="M1225,-117L1111,-124L1120,3Z" fill="#fd9a62" stroke="#fd9a62" stroke-width="1.51"/><path d="M337,630L449,760L484,640Z" fill="#fb833b" stroke="#fb833b" stroke-width="1.51"/><path d="M999,752L1116,771L1099,630Z" fill="#ef3622" stroke="#ef3622" stroke-width="1.51"/><path d="M1119,894L1116,771L999,752Z" fill="#e52a20" stroke="#e52a20" stroke-width="1.51"/><path d="M1264,272L1361,150L1213,105Z" fill="#ef8142" stroke="#ef8142" stroke-width="1.51"/><path d="M1256,534L1345,383L1240,362Z" fill="#eb602e" stroke="#eb602e" stroke-width="1.51"/><path d="M871,798L957,902L999,752Z" fill="#eb3a25" stroke="#eb3a25" stroke-width="1.51"/><path d="M717,924L840,883L699,760Z" fill="#e7572d" stroke="#e7572d" stroke-width="1.51"/><path d="M717,924L699,760L604,783Z" fill="#ec612f" stroke="#ec612f" stroke-width="1.51"/><path d="M1256,534L1349,523L1345,383Z" fill="#e8552c" stroke="#e8552c" stroke-width="1.51"/><path d="M1214,762L1257,638L1099,630Z" fill="#ec3020" stroke="#ec3020" stroke-width="1.51"/><path d="M461,-29L305,17L438,117Z" fill="#ffd174" stroke="#ffd174" stroke-width="1.51"/><path d="M321,129L206,235L347,237Z" fill="#ffcc68" stroke="#ffcc68" stroke-width="1.51"/><path d="M334,-137L305,17L461,-29Z" fill="#ffd982" stroke="#ffd982" stroke-width="1.51"/><path d="M995,-142L442,-148L729,-135Z" fill="#ffc47c" stroke="#ffc47c" stroke-width="1.51"/><path d="M576,-133L442,-148L461,-29Z" fill="#ffd27f" stroke="#ffd27f" stroke-width="1.51"/><path d="M202,141L206,235L321,129Z" fill="#ffd46f" stroke="#ffd46f" stroke-width="1.51"/><path d="M1345,383L1371,247L1264,272Z" fill="#e96f35" stroke="#e96f35" stroke-width="1.51"/><path d="M206,235L202,390L330,402Z" fill="#ffbf5e" stroke="#ffbf5e" stroke-width="1.51"/><path d="M1257,638L1349,523L1256,534Z" fill="#ea4327" stroke="#ea4327" stroke-width="1.51"/><path d="M1345,383L1471,398L1371,247Z" fill="#e36735" stroke="#e36735" stroke-width="1.51"/><path d="M1371,247L1361,150L1264,272Z" fill="#ea793e" stroke="#ea793e" stroke-width="1.51"/><path d="M202,390L207,492L330,402Z" fill="#ffb559" stroke="#ffb559" stroke-width="1.51"/><path d="M337,630L320,765L449,760Z" fill="#f9843e" stroke="#f9843e" stroke-width="1.51"/><path d="M840,883L957,902L871,798Z" fill="#e64228" stroke="#e64228" stroke-width="1.51"/><path d="M564,894L717,924L604,783Z" fill="#e76331" stroke="#e76331" stroke-width="1.51"/><path d="M840,883L850,1011L957,902Z" fill="#dd402b" stroke="#dd402b" stroke-width="1.51"/><path d="M77,262L90,396L202,390Z" fill="#ffc368" stroke="#ffc368" stroke-width="1.51"/><path d="M305,17L202,141L321,129Z" fill="#fed777" stroke="#fed777" stroke-width="1.51"/><path d="M186,-7L202,141L305,17Z" fill="#ffdd81" stroke="#ffdd81" stroke-width="1.51"/><path d="M1116,771L1214,762L1099,630Z" fill="#eb2e20" stroke="#eb2e20" stroke-width="1.51"/><path d="M1257,638L1361,641L1349,523Z" fill="#e63826" stroke="#e63826" stroke-width="1.51"/><path d="M1119,894L1214,762L1116,771Z" fill="#e2211f" stroke="#e2211f" stroke-width="1.51"/><path d="M480,896L604,783L449,760Z" fill="#ee7033" stroke="#ee7033" stroke-width="1.51"/><path d="M480,896L564,894L604,783Z" fill="#e86a33" stroke="#e86a33" stroke-width="1.51"/><path d="M1373,8L1225,-117L1232,1Z" fill="#f4925c" stroke="#f4925c" stroke-width="1.51"/><path d="M1232,1L1225,-117L1120,3Z" fill="#fa955b" stroke="#fa955b" stroke-width="1.51"/><path d="M1111,-124L1474,-156L995,-142Z" fill="#fc9b69" stroke="#fc9b69" stroke-width="1.51"/><path d="M442,-148L334,-137L461,-29Z" fill="#ffd885" stroke="#ffd885" stroke-width="1.51"/><path d="M202,629L320,765L337,630Z" fill="#fc8f47" stroke="#fc8f47" stroke-width="1.51"/><path d="M602,1045L710,1006L717,924Z" fill="#d35833" stroke="#d35833" stroke-width="1.51"/><path d="M349,926L480,896L449,760Z" fill="#e9753a" stroke="#e9753a" stroke-width="1.51"/><path d="M1366,776L1361,641L1257,638Z" fill="#e02823" stroke="#e02823" stroke-width="1.51"/><path d="M1349,523L1471,398L1345,383Z" fill="#e25b30" stroke="#e25b30" stroke-width="1.51"/><path d="M80,531L202,629L207,492Z" fill="#ffa759" stroke="#ffa759" stroke-width="1.51"/><path d="M207,492L202,629L337,630Z" fill="#ff9e4f" stroke="#ff9e4f" stroke-width="1.51"/><path d="M1214,762L1366,776L1257,638Z" fill="#e12220" stroke="#e12220" stroke-width="1.51"/><path d="M957,902L1119,894L999,752Z" fill="#e32e24" stroke="#e32e24" stroke-width="1.51"/><path d="M980,1028L1119,894L957,902Z" fill="#d82a27" stroke="#d82a27" stroke-width="1.51"/><path d="M1361,150L1373,8L1213,105Z" fill="#ee894d" stroke="#ee894d" stroke-width="1.51"/><path d="M1471,152L1373,8L1361,150Z" fill="#e6844d" stroke="#e6844d" stroke-width="1.51"/><path d="M186,-121L186,-7L305,17Z" fill="#ffe38c" stroke="#ffe38c" stroke-width="1.51"/><path d="M77,262L202,390L206,235Z" fill="#ffc867" stroke="#ffc867" stroke-width="1.51"/><path d="M202,390L90,396L207,492Z" fill="#ffba60" stroke="#ffba60" stroke-width="1.51"/><path d="M1371,247L1471,152L1361,150Z" fill="#e57b43" stroke="#e57b43" stroke-width="1.51"/><path d="M1515,538L1471,398L1349,523Z" fill="#de502f" stroke="#de502f" stroke-width="1.51"/><path d="M717,924L850,1011L840,883Z" fill="#dd4c2e" stroke="#dd4c2e" stroke-width="1.51"/><path d="M602,1045L717,924L564,894Z" fill="#db5e34" stroke="#db5e34" stroke-width="1.51"/><path d="M710,1006L850,1011L717,924Z" fill="#d55030" stroke="#d55030" stroke-width="1.51"/><path d="M77,262L206,235L202,141Z" fill="#ffd272" stroke="#ffd272" stroke-width="1.51"/><path d="M1495,234L1471,152L1371,247Z" fill="#e27741" stroke="#e27741" stroke-width="1.51"/><path d="M81,113L77,262L202,141Z" fill="#ffd87a" stroke="#ffd87a" stroke-width="1.51"/><path d="M1471,398L1495,234L1371,247Z" fill="#e06c38" stroke="#e06c38" stroke-width="1.51"/><path d="M850,1011L980,1028L957,902Z" fill="#d3362a" stroke="#d3362a" stroke-width="1.51"/><path d="M602,1045L980,1028L850,1011Z" fill="#cb462e" stroke="#cb462e" stroke-width="1.51"/><path d="M186,-7L81,113L202,141Z" fill="#ffde83" stroke="#ffde83" stroke-width="1.51"/><path d="M1486,630L1515,538L1349,523Z" fill="#dd3e2b" stroke="#dd3e2b" stroke-width="1.51"/><path d="M1262,912L1366,776L1214,762Z" fill="#d81420" stroke="#d81420" stroke-width="1.51"/><path d="M1262,912L1214,762L1119,894Z" fill="#da161f" stroke="#da161f" stroke-width="1.51"/><path d="M90,396L80,531L207,492Z" fill="#ffb561" stroke="#ffb561" stroke-width="1.51"/><path d="M202,629L226,800L320,765Z" fill="#f98d47" stroke="#f98d47" stroke-width="1.51"/><path d="M-52,383L80,531L90,396Z" fill="#ffbd6a" stroke="#ffbd6a" stroke-width="1.51"/><path d="M97,668L226,800L202,629Z" fill="#fd944f" stroke="#fd944f" stroke-width="1.51"/><path d="M320,765L349,926L449,760Z" fill="#f07c3c" stroke="#f07c3c" stroke-width="1.51"/><path d="M454,1035L602,1045L564,894Z" fill="#d46437" stroke="#d46437" stroke-width="1.51"/><path d="M1520,-21L1391,-113L1373,8Z" fill="#e78c5f" stroke="#e78c5f" stroke-width="1.51"/><path d="M1373,8L1391,-113L1225,-117Z" fill="#f09262" stroke="#f09262" stroke-width="1.51"/><path d="M1225,-117L1474,-156L1111,-124Z" fill="#f69768" stroke="#f69768" stroke-width="1.51"/><path d="M186,-7L85,15L81,113Z" fill="#ffe38b" stroke="#ffe38b" stroke-width="1.51"/><path d="M334,-137L186,-121L305,17Z" fill="#ffe28e" stroke="#ffe28e" stroke-width="1.51"/><path d="M226,800L349,926L320,765Z" fill="#ef8243" stroke="#ef8243" stroke-width="1.51"/><path d="M710,1006L602,1045L850,1011Z" fill="#cd5332" stroke="#cd5332" stroke-width="1.51"/><path d="M454,1035L564,894L480,896Z" fill="#de6a37" stroke="#de6a37" stroke-width="1.51"/><path d="M1129,1027L1262,912L1119,894Z" fill="#d01623" stroke="#d01623" stroke-width="1.51"/><path d="M1486,630L1349,523L1361,641Z" fill="#e03628" stroke="#e03628" stroke-width="1.51"/><path d="M1471,398L1601,255L1495,234Z" fill="#d56838" stroke="#d56838" stroke-width="1.51"/><path d="M1476,756L1486,630L1361,641Z" fill="#d82626" stroke="#d82626" stroke-width="1.51"/><path d="M1476,756L1361,641L1366,776Z" fill="#d71e22" stroke="#d71e22" stroke-width="1.51"/><path d="M81,-118L85,15L186,-7Z" fill="#ffe895" stroke="#ffe895" stroke-width="1.51"/><path d="M80,531L97,668L202,629Z" fill="#ff9f58" stroke="#ff9f58" stroke-width="1.51"/><path d="M345,1032L454,1035L349,926Z" fill="#d47040" stroke="#d47040" stroke-width="1.51"/><path d="M1212,1043L1129,1027L980,1028Z" fill="#c21d25" stroke="#c21d25" stroke-width="1.51"/><path d="M980,1028L1129,1027L1119,894Z" fill="#cd2225" stroke="#cd2225" stroke-width="1.51"/><path d="M225,907L349,926L226,800Z" fill="#e98247" stroke="#e98247" stroke-width="1.51"/><path d="M349,926L454,1035L480,896Z" fill="#dd703c" stroke="#dd703c" stroke-width="1.51"/><path d="M1471,152L1520,-21L1373,8Z" fill="#e38655" stroke="#e38655" stroke-width="1.51"/><path d="M1606,136L1520,-21L1471,152Z" fill="#d78050" stroke="#d78050" stroke-width="1.51"/><path d="M1606,136L1471,152L1495,234Z" fill="#d87846" stroke="#d87846" stroke-width="1.51"/><path d="M72,879L225,907L226,800Z" fill="#ec884e" stroke="#ec884e" stroke-width="1.51"/><path d="M1361,929L1366,776L1262,912Z" fill="#ce0d23" stroke="#ce0d23" stroke-width="1.51"/><path d="M1506,885L1476,756L1366,776Z" fill="#cc0c22" stroke="#cc0c22" stroke-width="1.51"/><path d="M1616,534L1634,393L1515,538Z" fill="#cb4b30" stroke="#cb4b30" stroke-width="1.51"/><path d="M1634,393L1471,398L1515,538Z" fill="#d25532" stroke="#d25532" stroke-width="1.51"/><path d="M1634,393L1601,255L1471,398Z" fill="#cf6036" stroke="#cf6036" stroke-width="1.51"/><path d="M97,668L90,766L226,800Z" fill="#fa9150" stroke="#fa9150" stroke-width="1.51"/><path d="M-34,643L90,766L97,668Z" fill="#ff9a5a" stroke="#ff9a5a" stroke-width="1.51"/><path d="M186,-121L81,-118L186,-7Z" fill="#ffe998" stroke="#ffe998" stroke-width="1.51"/><path d="M-60,255L77,262L-52,121Z" fill="#ffd880" stroke="#ffd880" stroke-width="1.51"/><path d="M-60,255L-52,383L77,262Z" fill="#ffce76" stroke="#ffce76" stroke-width="1.51"/><path d="M-47,-146L81,-118L186,-121Z" fill="#ffeea6" stroke="#ffeea6" stroke-width="1.51"/><path d="M-47,-146L186,-121L334,-137Z" fill="#ffeb9f" stroke="#ffeb9f" stroke-width="1.51"/><path d="M1212,1043L1361,929L1262,912Z" fill="#c50923" stroke="#c50923" stroke-width="1.51"/><path d="M1520,-21L1474,-156L1391,-113Z" fill="#e58e66" stroke="#e58e66" stroke-width="1.51"/><path d="M1391,-113L1474,-156L1225,-117Z" fill="#ee9369" stroke="#ee9369" stroke-width="1.51"/><path d="M995,-142L1474,-156L442,-148Z" fill="#ffaa72" stroke="#ffaa72" stroke-width="1.51"/><path d="M454,1035L345,1032L602,1045Z" fill="#cb673a" stroke="#cb673a" stroke-width="1.51"/><path d="M220,1007L345,1032L349,926Z" fill="#d77846" stroke="#d77846" stroke-width="1.51"/><path d="M1129,1027L1212,1043L1262,912Z" fill="#c50f22" stroke="#c50f22" stroke-width="1.51"/><path d="M602,1045L1212,1043L980,1028Z" fill="#c8332a" stroke="#c8332a" stroke-width="1.51"/><path d="M1520,-21L1620,-107L1474,-156Z" fill="#d98a66" stroke="#d98a66" stroke-width="1.51"/><path d="M1601,255L1606,136L1495,234Z" fill="#d17242" stroke="#d17242" stroke-width="1.51"/><path d="M80,531L-34,643L97,668Z" fill="#ffa15e" stroke="#ffa15e" stroke-width="1.51"/><path d="M77,262L-52,383L90,396Z" fill="#ffc76f" stroke="#ffc76f" stroke-width="1.51"/><path d="M77,262L81,113L-52,121Z" fill="#ffdc82" stroke="#ffdc82" stroke-width="1.51"/><path d="M-52,121L81,113L85,15Z" fill="#ffe38d" stroke="#ffe38d" stroke-width="1.51"/><path d="M1601,255L1732,270L1606,136Z" fill="#c66d41" stroke="#c66d41" stroke-width="1.51"/><path d="M1616,534L1515,538L1612,628Z" fill="#cb392c" stroke="#cb392c" stroke-width="1.51"/><path d="M1612,628L1515,538L1486,630Z" fill="#d03229" stroke="#d03229" stroke-width="1.51"/><path d="M-32,-27L-52,121L85,15Z" fill="#ffe896" stroke="#ffe896" stroke-width="1.51"/><path d="M-52,383L-51,539L80,531Z" fill="#ffb86c" stroke="#ffb86c" stroke-width="1.51"/><path d="M-180,494L-51,539L-52,383Z" fill="#ffbe74" stroke="#ffbe74" stroke-width="1.51"/><path d="M1604,749L1612,628L1486,630Z" fill="#c82427" stroke="#c82427" stroke-width="1.51"/><path d="M1748,371L1732,270L1634,393Z" fill="#be5c37" stroke="#be5c37" stroke-width="1.51"/><path d="M1604,749L1486,630L1476,756Z" fill="#cb1d25" stroke="#cb1d25" stroke-width="1.51"/><path d="M-51,539L-34,643L80,531Z" fill="#ffaa65" stroke="#ffaa65" stroke-width="1.51"/><path d="M71,1024L220,1007L225,907Z" fill="#da8151" stroke="#da8151" stroke-width="1.51"/><path d="M225,907L220,1007L349,926Z" fill="#e07e49" stroke="#e07e49" stroke-width="1.51"/><path d="M81,-118L-32,-27L85,15Z" fill="#ffeb9d" stroke="#ffeb9d" stroke-width="1.51"/><path d="M72,879L226,800L90,766Z" fill="#f38c50" stroke="#f38c50" stroke-width="1.51"/><path d="M1606,136L1607,-29L1520,-21Z" fill="#d28157" stroke="#d28157" stroke-width="1.51"/><path d="M1620,-107L1607,-29L1742,-129Z" fill="#c98565" stroke="#c98565" stroke-width="1.51"/><path d="M-61,770L72,879L90,766Z" fill="#f59158" stroke="#f59158" stroke-width="1.51"/><path d="M1509,1041L1506,885L1361,929Z" fill="#b90026" stroke="#b90026" stroke-width="1.51"/><path d="M1361,929L1506,885L1366,776Z" fill="#c80824" stroke="#c80824" stroke-width="1.51"/><path d="M1506,885L1604,749L1476,756Z" fill="#c30b23" stroke="#c30b23" stroke-width="1.51"/><path d="M1748,371L1634,393L1745,541Z" fill="#bd5133" stroke="#bd5133" stroke-width="1.51"/><path d="M1607,-29L1620,-107L1520,-21Z" fill="#d38661" stroke="#d38661" stroke-width="1.51"/><path d="M1763,130L1607,-29L1606,136Z" fill="#c67b51" stroke="#c67b51" stroke-width="1.51"/><path d="M1212,1043L1394,1047L1361,929Z" fill="#b90624" stroke="#b90624" stroke-width="1.51"/><path d="M1734,769L1612,628L1604,749Z" fill="#ba1a25" stroke="#ba1a25" stroke-width="1.51"/><path d="M602,1045L1394,1047L1212,1043Z" fill="#c22126" stroke="#c22126" stroke-width="1.51"/><path d="M1634,393L1732,270L1601,255Z" fill="#c46239" stroke="#c46239" stroke-width="1.51"/><path d="M1634,393L1616,534L1745,541Z" fill="#c14830" stroke="#c14830" stroke-width="1.51"/><path d="M81,-118L-47,-146L-32,-27Z" fill="#fff0a8" stroke="#fff0a8" stroke-width="1.51"/><path d="M-188,102L-60,255L-52,121Z" fill="#ffe28f" stroke="#ffe28f" stroke-width="1.51"/><path d="M-203,277L-52,383L-60,255Z" fill="#ffd17e" stroke="#ffd17e" stroke-width="1.51"/><path d="M442,-148L-47,-146L334,-137Z" fill="#ffe899" stroke="#ffe899" stroke-width="1.51"/><path d="M1474,-156L-47,-146L442,-148Z" fill="#ffcb81" stroke="#ffcb81" stroke-width="1.51"/><path d="M72,879L71,1024L225,907Z" fill="#e48654" stroke="#e48654" stroke-width="1.51"/><path d="M-34,643L-61,770L90,766Z" fill="#fc985d" stroke="#fc985d" stroke-width="1.51"/><path d="M-198,652L-61,770L-34,643Z" fill="#ffa067" stroke="#ffa067" stroke-width="1.51"/><path d="M-198,652L-34,643L-51,539Z" fill="#ffa76b" stroke="#ffa76b" stroke-width="1.51"/><path d="M1745,541L1616,534L1741,619Z" fill="#bd372c" stroke="#bd372c" stroke-width="1.51"/><path d="M-212,369L-180,494L-52,383Z" fill="#ffc67c" stroke="#ffc67c" stroke-width="1.51"/><path d="M-203,277L-60,255L-188,102Z" fill="#ffde8d" stroke="#ffde8d" stroke-width="1.51"/><path d="M1741,619L1616,534L1612,628Z" fill="#c1312b" stroke="#c1312b" stroke-width="1.51"/><path d="M-188,102L-52,121L-163,-19Z" fill="#ffeb9e" stroke="#ffeb9e" stroke-width="1.51"/><path d="M1745,541L1763,130L1748,371Z" fill="#be5c37" stroke="#be5c37" stroke-width="1.51"/><path d="M1748,371L1763,130L1732,270Z" fill="#bf673d" stroke="#bf673d" stroke-width="1.51"/><path d="M1732,270L1763,130L1606,136Z" fill="#c17046" stroke="#c17046" stroke-width="1.51"/><path d="M-163,-19L-52,121L-32,-27Z" fill="#ffeb9f" stroke="#ffeb9f" stroke-width="1.51"/><path d="M1631,924L1604,749L1506,885Z" fill="#b60624" stroke="#b60624" stroke-width="1.51"/><path d="M1734,769L1741,619L1612,628Z" fill="#b82127" stroke="#b82127" stroke-width="1.51"/><path d="M-214,-109L-212,369L-203,277Z" fill="#ffe496" stroke="#ffe496" stroke-width="1.51"/><path d="M-203,277L-212,369L-52,383Z" fill="#ffcf81" stroke="#ffcf81" stroke-width="1.51"/><path d="M-56,920L71,1024L72,879Z" fill="#e4895c" stroke="#e4895c" stroke-width="1.51"/><path d="M220,1007L71,1024L345,1032Z" fill="#d17d4e" stroke="#d17d4e" stroke-width="1.51"/><path d="M345,1032L-201,1047L602,1045Z" fill="#cc794b" stroke="#cc794b" stroke-width="1.51"/><path d="M-47,-146L-163,-19L-32,-27Z" fill="#fff1ab" stroke="#fff1ab" stroke-width="1.51"/><path d="M1394,1047L1509,1041L1361,929Z" fill="#b10126" stroke="#b10126" stroke-width="1.51"/><path d="M-61,770L-56,920L72,879Z" fill="#ef905e" stroke="#ef905e" stroke-width="1.51"/><path d="M-187,914L-56,920L-61,770Z" fill="#ef9265" stroke="#ef9265" stroke-width="1.51"/><path d="M1618,1014L1631,924L1506,885Z" fill="#aa0026" stroke="#aa0026" stroke-width="1.51"/><path d="M-180,494L-198,652L-51,539Z" fill="#ffb172" stroke="#ffb172" stroke-width="1.51"/><path d="M-212,369L-198,652L-180,494Z" fill="#ffbc7b" stroke="#ffbc7b" stroke-width="1.51"/><path d="M1763,130L1774,-12L1607,-29Z" fill="#c27c57" stroke="#c27c57" stroke-width="1.51"/><path d="M1758,903L1774,-12L1763,130Z" fill="#bf5c38" stroke="#bf5c38" stroke-width="1.51"/><path d="M1758,903L1763,130L1745,541Z" fill="#bd402e" stroke="#bd402e" stroke-width="1.51"/><path d="M1741,619L1758,903L1745,541Z" fill="#b71f26" stroke="#b71f26" stroke-width="1.51"/><path d="M1631,924L1734,769L1604,749Z" fill="#b10924" stroke="#b10924" stroke-width="1.51"/><path d="M1774,-12L1742,-129L1607,-29Z" fill="#c38162" stroke="#c38162" stroke-width="1.51"/><path d="M1620,-107L1742,-129L1474,-156Z" fill="#d0896b" stroke="#d0896b" stroke-width="1.51"/><path d="M-198,652L-192,771L-61,770Z" fill="#ff9d6a" stroke="#ff9d6a" stroke-width="1.51"/><path d="M1631,924L1758,903L1734,769Z" fill="#a60425" stroke="#a60425" stroke-width="1.51"/><path d="M1509,1041L1618,1014L1506,885Z" fill="#a80026" stroke="#a80026" stroke-width="1.51"/><path d="M-187,914L-47,1019L-56,920Z" fill="#e38d66" stroke="#e38d66" stroke-width="1.51"/><path d="M-56,920L-47,1019L71,1024Z" fill="#da885f" stroke="#da885f" stroke-width="1.51"/><path d="M-163,-19L-214,-109L-188,102Z" fill="#fff2ad" stroke="#fff2ad" stroke-width="1.51"/><path d="M-188,102L-214,-109L-203,277Z" fill="#ffeca1" stroke="#ffeca1" stroke-width="1.51"/><path d="M-47,-146L-214,-109L-163,-19Z" fill="#fff5b3" stroke="#fff5b3" stroke-width="1.51"/><path d="M1765,1016L1758,903L1631,924Z" fill="#9c0026" stroke="#9c0026" stroke-width="1.51"/><path d="M1734,769L1758,903L1741,619Z" fill="#b10e23" stroke="#b10e23" stroke-width="1.51"/><path d="M-192,771L-187,914L-61,770Z" fill="#f69768" stroke="#f69768" stroke-width="1.51"/><path d="M-201,1047L-187,914L-192,771Z" fill="#eb946e" stroke="#eb946e" stroke-width="1.51"/><path d="M-201,1047L-192,771L-198,652Z" fill="#f6986c" stroke="#f6986c" stroke-width="1.51"/><path d="M1618,1014L1765,1016L1631,924Z" fill="#970026" stroke="#970026" stroke-width="1.51"/><path d="M1758,903L1765,1016L1774,-12Z" fill="#ba2729" stroke="#ba2729" stroke-width="1.51"/><path d="M1509,1041L1765,1016L1618,1014Z" fill="#950026" stroke="#950026" stroke-width="1.51"/><path d="M-187,914L-201,1047L-47,1019Z" fill="#db8c6a" stroke="#db8c6a" stroke-width="1.51"/><path d="M-47,1019L-201,1047L71,1024Z" fill="#d28763" stroke="#d28763" stroke-width="1.51"/><path d="M71,1024L-201,1047L345,1032Z" fill="#d08159" stroke="#d08159" stroke-width="1.51"/><path d="M602,1045L-201,1047L1394,1047Z" fill="#c95c36" stroke="#c95c36" stroke-width="1.51"/><path d="M-212,369L-201,1047L-198,652Z" fill="#ffa370" stroke="#ffa370" stroke-width="1.51"/></svg>